<?xml version="1.0" encoding="utf-8"?>
<!-- Generator: Adobe Illustrator 25.4.1, SVG Export Plug-In . SVG Version: 6.00 Build 0)  -->
<svg version="1.1" id="Calque_1" xmlns="http://www.w3.org/2000/svg" xmlns:xlink="http://www.w3.org/1999/xlink" x="0px" y="0px"
	 viewBox="0 0 40 40" style="enable-background:new 0 0 40 40;" xml:space="preserve">
<style type="text/css">
	.st0{fill:#FFFFFF;}
</style>
<g>
	<g>
		<path class="st0" d="M19.28,20c-0.12-0.12-0.22-0.22-0.32-0.32c-2.95-2.95-5.9-5.9-8.85-8.85c-0.11-0.11-0.22-0.2-0.28-0.35
			c-0.08-0.22-0.07-0.39,0.1-0.55c0.16-0.16,0.33-0.17,0.55-0.09c0.16,0.06,0.25,0.17,0.35,0.28c2.56,2.56,5.12,5.11,7.67,7.67
			c0.48,0.48,0.96,0.96,1.47,1.47c0.09-0.08,0.18-0.16,0.27-0.25c2.97-2.97,5.94-5.94,8.91-8.91c0.11-0.11,0.2-0.22,0.35-0.28
			c0.22-0.08,0.39-0.07,0.55,0.1c0.16,0.16,0.17,0.33,0.09,0.55c-0.06,0.16-0.17,0.25-0.28,0.35c-2.56,2.56-5.11,5.12-7.67,7.67
			c-0.48,0.48-0.96,0.96-1.47,1.47c0.08,0.09,0.16,0.18,0.25,0.27c2.97,2.97,5.94,5.94,8.91,8.91c0.11,0.11,0.22,0.2,0.28,0.35
			c0.08,0.22,0.07,0.39-0.1,0.55c-0.16,0.16-0.33,0.17-0.55,0.09c-0.16-0.06-0.25-0.17-0.35-0.28c-2.58-2.58-5.16-5.15-7.73-7.73
			c-0.46-0.46-0.92-0.92-1.41-1.41c-0.09,0.08-0.18,0.16-0.27,0.25c-2.97,2.97-5.94,5.94-8.91,8.91c-0.11,0.11-0.2,0.22-0.35,0.28
			c-0.22,0.08-0.39,0.07-0.55-0.1c-0.16-0.16-0.17-0.33-0.09-0.55c0.06-0.16,0.17-0.25,0.28-0.35c2.58-2.58,5.15-5.16,7.73-7.73
			C18.31,20.96,18.78,20.5,19.28,20z"/>
	</g>
</g>
</svg>
