<?xml version="1.0" encoding="utf-8"?>
<!-- Generator: Adobe Illustrator 25.4.1, SVG Export Plug-In . SVG Version: 6.00 Build 0)  -->
<svg version="1.1" id="Calque_1" xmlns="http://www.w3.org/2000/svg" xmlns:xlink="http://www.w3.org/1999/xlink" x="0px" y="0px"
	 viewBox="0 0 99.3 86.5" style="enable-background:new 0 0 99.3 86.5;" xml:space="preserve">
<style type="text/css">
	.st0{fill:#8DA0FF;}
	.st1{fill:#576A96;}
	.st2{fill:#FF8212;}
	.st3{fill:#FFDF57;}
</style>
<g id="Calque_2_00000118388456361236137950000014708124841920559802_">
	<g>
		<polygon points="1574.5,324.5 1599.3,324.5 1599.3,351.3 1574.5,351.1 		"/>
		<polygon points="1599.3,272.5 1624.7,272.5 1624.7,324.5 1599.3,324.5 		"/>
		<polygon points="1624.7,221.6 1651.9,221.6 1651.9,272.6 1624.7,272.5 		"/>
		<polygon points="1678,169.6 1678,221.9 1651.9,221.6 1651.9,198.7 1368,198.7 1368,221.6 1339.2,221.6 1339.2,169.6 1547.2,169.6 
			1547.2,145.7 1339.2,145.7 1339.2,118.2 1287.8,118.2 1287.8,145.7 1261.7,145.7 1261.7,327 1287.8,327 1287.8,351.1 
			1574.5,351.1 1574.4,380.3 1261.7,380.3 1261.7,351.1 1236.1,351.1 1236.1,118.2 1261.9,118.2 1261.9,92.4 1368,92.4 1368,119.1 
			1577.6,119.1 1577.6,169.6 		"/>
		<rect x="1287.8" y="272.5" width="26.3" height="54.5"/>
		<polygon class="st0" points="1651.9,198.7 1651.9,221.6 1624.7,221.6 1624.7,272.5 1599.3,272.5 1599.3,324.5 1574.5,324.5 
			1574.5,351.1 1287.8,351.1 1287.8,327 1314.1,327 1314.1,272.5 1339.2,272.5 1339.2,221.6 1368,221.6 1368,198.7 		"/>
		<polygon class="st1" points="1547.2,145.7 1547.2,169.6 1339.2,169.6 1339.2,221.6 1314.1,221.6 1314.1,272.5 1287.8,272.5 
			1287.8,327 1261.7,327 1261.7,145.7 1261.9,118.2 1287.8,118.2 1339.2,118.2 1339.2,145.7 		"/>
		<rect x="1314.1" y="221.6" width="25.1" height="50.8"/>
	</g>
</g>
<g>
	<path d="M84.4,25.5V12H37.8V6.1H13.6V12H8.1v61.7h10.8v7.7h70.9V25.5H84.4z M18.9,67.2h-5.3v-55h12v7.1H78v6.3H18.9V67.2z
		 M84.3,73.7H24.6V33.3h59.7V73.7z"/>
	<polygon class="st2" points="78,18.1 78,25.6 18.9,25.6 18.9,67.2 13.6,67.2 13.6,12.2 31.1,12.2 31.2,18.2 	"/>
	<rect x="24.6" y="32.6" class="st3" width="59.7" height="42.9"/>
</g>
</svg>
