<?xml version="1.0" encoding="utf-8"?>
<!-- Generator: Adobe Illustrator 25.4.1, SVG Export Plug-In . SVG Version: 6.00 Build 0)  -->
<svg version="1.1" id="Calque_1" xmlns="http://www.w3.org/2000/svg" xmlns:xlink="http://www.w3.org/1999/xlink" x="0px" y="0px"
	 viewBox="0 0 99.3 86.5" style="enable-background:new 0 0 99.3 86.5;" xml:space="preserve">
<style type="text/css">
	.st0{fill:#FFDF57;}
	.st1{fill:#FF8212;}
</style>
<g id="Calque_2_00000026141649569363215430000010991622830031317430_">
	<g>
		<polygon points="81.2,66 81.2,72.6 76.2,72.6 76.2,66 		"/>
		<rect x="81.2" y="53.2" width="5.2" height="12.8"/>
		<polygon points="91.9,40.7 91.9,53.2 86.3,53.2 86.3,40.7 		"/>
		<polygon points="97.1,27.8 97.1,40.7 91.9,40.7 91.9,35 34.3,35 34.3,40.7 28.5,40.7 28.5,27.8 70.6,27.8 70.6,21.9 28.5,21.9 
			28.5,15.2 18.1,15.2 18.1,21.9 12.8,21.9 12.8,66.6 18.1,66.6 18.1,72.6 76.2,72.6 76.2,79.8 12.8,79.8 12.8,72.6 7.6,72.6 
			7.6,15.2 12.8,15.2 12.8,8.8 34.3,8.8 34.3,15.4 76.8,15.4 76.8,27.8 		"/>
		<rect x="18.1" y="53.2" width="5.3" height="13.5"/>
		<polygon class="st0" points="91.9,35 91.9,40.7 86.3,40.7 86.3,53.2 81.2,53.2 81.2,66 76.2,66 76.2,72.6 18.1,72.6 18.1,66.6 
			23.4,66.6 23.4,53.2 28.5,53.2 28.5,40.7 34.3,40.7 34.3,35 		"/>
		<polygon class="st1" points="70.6,21.9 70.6,27.8 28.5,27.8 28.5,40.7 23.4,40.7 23.4,53.2 18.1,53.2 18.1,66.6 12.8,66.6 
			12.8,21.9 12.8,15.2 18.1,15.2 28.5,15.2 28.5,21.9 		"/>
		<rect x="23.4" y="40.7" width="5.1" height="12.5"/>
	</g>
</g>
</svg>
