<?xml version="1.0" encoding="utf-8"?>
<!-- Generator: Adobe Illustrator 25.4.1, SVG Export Plug-In . SVG Version: 6.00 Build 0)  -->
<svg version="1.1" xmlns="http://www.w3.org/2000/svg" xmlns:xlink="http://www.w3.org/1999/xlink" x="0px" y="0px"
	 viewBox="0 0 1080 1080" style="enable-background:new 0 0 1080 1080;" xml:space="preserve">
<style type="text/css">
	.st0{display:none;}
	.st1{display:inline;}
	.st2{fill:#FFFFFF;}
	.st3{fill:#FCFBE8;}
	.st4{fill:#3B4BE2;}
	.st5{fill:none;}
	.st6{font-family:'NeueBit-Regular';}
	.st7{font-size:72.0446px;}
	.st8{letter-spacing:68.93;}
	.st9{stroke:#000000;stroke-width:2;stroke-miterlimit:10;}
	.st10{stroke:#000000;stroke-width:5;stroke-miterlimit:10;}
	.st11{fill:none;stroke:#000000;stroke-miterlimit:10;}
	.st12{font-size:124px;}
	.st13{letter-spacing:24.33;}
	.st14{letter-spacing:269.65;}
</style>
<g id="Calque_3" class="st0">
	<rect class="st1" width="1090.77" height="1090.77"/>
</g>
<g id="fond_affiche">
	<g>
		<rect x="210.86" y="50.47" class="st2" width="676.19" height="1006.52"/>
	</g>
	<rect class="st3" width="1080" height="1080"/>
	<rect x="27" y="27" class="st4" width="1026" height="1026"/>
</g>
<g id="affiche">
	<g>
		<path d="M199.34,766.89h-17.47v-4.42h-4.36v-4.42h-4.36v-13.29h8.72v8.87h4.36v4.42h8.75v-4.42h4.36v-48.74h8.75v53.16h-4.36v4.42
			h-4.39V766.89z"/>
		<path d="M276.22,766.89H250v-4.42h-4.36v-4.42h-4.36v-53.16H250v48.74h4.36v4.42h17.5v-4.42h4.36v-48.74h8.72v53.16h-4.36v4.42
			h-4.36V766.89z"/>
		<path d="M357.42,766.89h-39.3v-62h8.72v53.16h30.58V766.89z"/>
		<path d="M403.72,766.89H395v-26.55h-4.39v-8.87h-4.36v-8.84h-4.36v-8.87h-4.36v-8.87h8.72v8.87h4.36v8.87H395v8.84h8.72v-8.84
			h4.39v-8.87h4.36v-8.87h8.72v8.87h-4.36v8.87h-4.36v8.84h-4.36v8.87h-4.39V766.89z"/>
		<path d="M524.68,766.89h-21.86v-4.42h-4.36v-4.42h-4.36v-8.87h8.72v4.45h4.36v4.42h13.11v-4.42h4.39v-13.29h-4.39v4.42h-17.47
			v-4.42h-4.36v-4.45h-4.36v-22.13h4.36v-4.42h4.36v-4.45h21.86v4.45h4.36v4.42h4.36v44.29h-4.36v4.42h-4.36V766.89z M507.18,735.89
			h13.11v-4.42h4.39v-13.29h-4.39v-4.42h-13.11v4.42h-4.36v13.29h4.36V735.89z"/>
		<path d="M573.12,766.89h-6.54v-8.84h4.36v-8.87h4.36v-8.84h4.36v-8.87h4.39v-8.84h4.36v-8.87h4.36v-8.87h4.39v-8.84h6.54v8.84
			h-4.36v8.87h-4.39v8.87h-4.36v8.84h-4.36v8.87h-4.36v8.84h-4.39v8.87h-4.36V766.89z"/>
		<path d="M656.54,766.89h-8.75v-46.5h-13.08v-6.63h13.08v-8.87h8.75V766.89z"/>
		<path d="M720.3,766.89h-21.86v-4.42h-4.36v-4.42h-4.36v-44.29h4.36v-4.42h4.36v-4.45h21.86v4.45h4.36v4.42h4.36v44.29h-4.36v4.42
			h-4.36V766.89z M702.8,758.05h13.11v-4.42h4.39v-35.45h-4.39v-4.42H702.8v4.42h-4.36v35.45h4.36V758.05z"/>
		<path d="M768.75,766.89h-6.54v-8.84h4.36v-8.87h4.36v-8.84h4.36v-8.87h4.39v-8.84h4.36v-8.87h4.36v-8.87h4.39v-8.84h6.54v8.84
			h-4.36v8.87h-4.39v8.87h-4.36v8.84h-4.36v8.87h-4.36v8.84h-4.39v8.87h-4.36V766.89z"/>
		<path d="M852.17,766.89h-8.75v-46.5h-13.08v-6.63h13.08v-8.87h8.75V766.89z"/>
		<path d="M905,766.89h-8.75v-46.5h-13.08v-6.63h13.08v-8.87H905V766.89z"/>
	</g>
	<rect x="173.15" y="932.5" class="st5" width="733.43" height="120.5"/>
	<text transform="matrix(0.9865 0 0 1 173.1512 968.5216)"><tspan x="0" y="0" class="st6 st7">1908</tspan><tspan x="97.71" y="0" class="st6 st7 st8"> </tspan><tspan x="179.55" y="0" class="st6 st7">Saint-Laurent,</tspan><tspan x="481.66" y="0" class="st6 st7 st8"> </tspan><tspan x="563.5" y="0" class="st6 st7">Montréal</tspan></text>
	<g>
		<g>
			<path class="st9" d="M206.07,627.79h-15.79v-10.64h-5.25v-21.32h-5.25V574.5h-5.25v-21.36h10.5v21.36h5.25v21.32h5.29v16h5.25
				v-16h5.25V574.5h5.29v-21.36h15.75v21.36h5.29v21.32h5.25v16h5.25v-16h5.29V574.5h5.25v-21.36h10.5v21.36h-5.25v21.32h-5.25
				v21.32h-5.25v10.64h-15.79v-10.64h-5.29v-21.32h-5.25V574.5h-5.25v21.32h-5.25v21.32h-5.29V627.79z"/>
			<path class="st9" d="M394.36,622.49c-7.66,0-14.7,1.82-21.13,5.47l-0.85-1.02c6.42-7.97,14.01-12.53,22.75-13.68v-0.7
				c0-5.68-1.66-10.59-4.97-14.73c-3.32-4.14-8.13-7.33-14.46-9.57v-1.41l19.04-13.44v-1.64c0-4.74-0.78-8.13-2.35-10.16
				c-1.57-2.03-4.12-3.05-7.67-3.05c-2.42,0-4.88,0.76-7.4,2.27l-1.08-1.17c3.96-4.79,8.82-7.19,14.57-7.19
				c4.37,0,7.8,1.17,10.29,3.52c2.49,2.34,3.87,5.71,4.12,10.08l19.51-13.44l16.58,22.9l-16.11,11.1
				c7.25,3.75,12.23,9.98,14.96,18.68l1.7,5.63c1.44,4.53,3.16,7.61,5.17,9.22l4.01-3.67l1.54,1.95l-11.26,10.55
				c-2.47-1.88-4.22-3.67-5.24-5.39c-0.98-1.72-2.06-4.82-3.24-9.3c-1.75-6.41-4.01-11.26-6.79-14.54
				c-2.67-3.18-6.27-5.29-10.79-6.33l-2,1.41v20.95c3.86,1.56,6.68,3.02,8.48,4.38l4.93-4.85l1.62,1.8l-12.26,11.88
				C409.65,624.65,402.43,622.49,394.36,622.49z M394.75,592.71v-16.18l-11.03,7.97C388.24,586.8,391.92,589.53,394.75,592.71z
				 M410.78,565.2l-5.55,3.91v44.63c0.51,0.1,1.23,0.27,2.16,0.51c0.93,0.23,2.06,0.51,3.39,0.82V565.2z M417.65,560.43l-4.39,3.13
				v28.37l17.73-12.43L417.65,560.43z"/>
			<path class="st9" d="M464.75,552.65h10.13l37.93,51.04H513v-49.1h14.04v74.47h-10.13l-37.93-51.04h-0.19v49.58h-14.04V552.65z"/>
		</g>
		<g>
			<path class="st9" d="M277.83,590.42c0-11.22,3.7-20.22,11.1-27.01c7.4-6.79,16.63-10.18,27.7-10.18
				c11.17,0,20.5,3.36,27.99,10.07c7.49,6.72,11.23,15.88,11.23,27.49c0,11.25-3.59,20.36-10.76,27.33
				c-7.17,6.97-16.61,10.45-28.31,10.45c-11.38,0-20.72-3.48-28.02-10.45C281.48,611.15,277.83,601.92,277.83,590.42z
				 M289.94,590.79c0,11.68,2.3,20.45,6.9,26.31c4.6,5.86,11.5,8.79,20.7,8.79c8.07,0,14.45-2.93,19.14-8.79
				c4.69-5.86,7.03-14.59,7.03-26.2c0-11.29-2.31-19.94-6.93-25.96c-4.62-6.02-11.31-9.03-20.09-9.03c-8.64,0-15.25,2.94-19.85,8.81
				C292.24,570.6,289.94,579.29,289.94,590.79z"/>
		</g>
	</g>
	<g>
		<g>
			<path class="st10" d="M350.33,477.67h-15.42V331.3h15.42v62.75h123.59V331.3h15.42v146.37h-15.42v-73.19H350.33V477.67z"/>
			<path class="st10" d="M686.5,353.09c12.87,11.78,19.3,25.69,19.3,41.72c0,15.05-6.65,29.8-19.93,44.25
				c-10.46,11.58-21.92,20.74-34.37,27.47c-12.03,6.63-23.44,9.95-34.21,9.95c-18.1,0-33.27-5.99-45.51-17.97
				c-12.24-11.98-18.36-26.78-18.36-44.4c0-13.07,3.3-26.97,9.89-41.72l72.35-41.28C656.78,334.08,673.73,341.41,686.5,353.09z
				 M584.64,440.1c3.45-3.07,5.65-6.63,6.59-10.69c0.21-1.19,0.39-2.84,0.55-4.97c0.16-2.13,0.24-4.73,0.24-7.8V361.4
				c-14.34,10-21.5,23.66-21.5,40.98C570.52,415.06,575.22,427.63,584.64,440.1z M612.89,403.72c0,9.5-1.41,16.53-4.24,21.08
				c-2.72,4.45-9.57,10.74-20.56,18.86c9.83,9.7,21.92,15.39,36.25,17.08V349.97c-1.78-0.2-3.61-0.37-5.49-0.52
				c-1.88-0.15-3.87-0.22-5.96-0.22V403.72z M679.59,379.07c-2.2-3.66-4.97-7.1-8.32-10.32c-3.35-3.22-7.2-6.06-11.54-8.54
				c-4.34-2.47-9.08-4.55-14.2-6.24c-5.13-1.68-10.57-2.92-16.32-3.71v28.81c8.26,6.53,16.69,9.8,25.27,9.8
				C663.48,388.87,671.85,385.61,679.59,379.07z M681.79,418.57c1.88-7.42,2.83-13.41,2.83-17.97c0-5.05-1.05-10.64-3.14-16.78
				c-9,6.24-17.73,9.35-26.21,9.35c-9.1,0-17.79-3.12-26.05-9.35v31.92c7.43-6.14,15.54-9.21,24.33-9.21
				C663.06,406.54,672.48,410.55,681.79,418.57z M660.29,450.35c9.21-6.93,15.8-15.89,19.78-26.88
				c-7.22-8.32-15.96-12.47-26.21-12.47c-9.73,0-17.95,3.71-24.64,11.14v38.61h1.88C641.35,460.74,651.08,457.28,660.29,450.35z"/>
			<path class="st10" d="M796.6,477.67h-26.73V331.3h107.1v10.51h13.36v10.44h13.36v52.24h-13.36v10.51h-13.36v10.44H796.6V477.67z
				 M796.6,404.49h67.01v-10.43h13.36v-31.38h-13.36v-10.43H796.6V404.49z"/>
			<path class="st10" d="M194.81,288.16h-21.39V129.59h85.71v11.38h10.7v11.31h10.7v56.6h-10.7v11.38h-10.7v11.31h-64.32V288.16z
				 M194.81,208.88h53.62v-11.3h10.7v-33.99h-10.7v-11.3h-53.62V208.88z"/>
		</g>
		<g>
			<g>
				<path d="M362.14,291.94c-18.39,0-35.83-8.7-49.11-24.5c-13.22-15.72-20.5-36.38-20.5-58.15c0-21.8,7.26-42.45,20.43-58.15
					c13.26-15.8,30.72-24.5,49.18-24.5c18.39,0,35.83,8.7,49.11,24.5c13.22,15.73,20.5,36.38,20.5,58.15
					c0,21.77-7.28,42.42-20.5,58.15C397.97,283.23,380.53,291.94,362.14,291.94z M362.14,140.95c-14.82,0-28.89,7.13-39.61,20.07
					c-10.81,13.04-16.76,30.18-16.76,48.27s5.95,35.23,16.76,48.27c10.72,12.94,24.79,20.06,39.61,20.06
					c30.56,0,56.37-31.29,56.37-68.33C418.51,172.25,392.69,140.95,362.14,140.95z"/>
				<path d="M362.14,129.13c36.39,0,67.11,36.24,67.11,80.15c0,43.91-30.72,80.15-67.11,80.15c-36.39,0-67.11-36.24-67.11-80.15
					C295.03,165.38,325.58,129.13,362.14,129.13 M362.14,280.12c32.1,0,58.87-32.52,58.87-70.83c0-38.52-26.78-70.83-58.87-70.83
					c-32.27,0-58.87,32.31-58.87,70.83C303.27,247.81,329.87,280.12,362.14,280.12 M362.14,124.13c-19.21,0-37.35,9.02-51.1,25.4
					c-13.55,16.15-21.02,37.37-21.02,59.76c0,22.36,7.49,43.58,21.08,59.76c13.76,16.38,31.89,25.39,51.03,25.39
					s37.26-9.02,51.03-25.39c13.59-16.17,21.08-37.4,21.08-59.76c0-22.36-7.49-43.58-21.08-59.76
					C399.4,133.15,381.28,124.13,362.14,124.13L362.14,124.13z M362.14,275.12c-14.06,0-27.45-6.8-37.69-19.16
					c-10.44-12.59-16.19-29.17-16.19-46.67c0-17.5,5.75-34.08,16.19-46.67c10.24-12.36,23.62-19.16,37.69-19.16
					c29.2,0,53.87,30.15,53.87,65.83C416.01,244.97,391.34,275.12,362.14,275.12L362.14,275.12z"/>
			</g>
		</g>
		<g>
			<path class="st10" d="M829.65,214.73v33.37c0,12.49,0.29,20.67,0.87,24.53c0.58,3.86,2.14,6.73,4.68,8.61
				c2.54,1.87,7.32,2.81,14.32,2.81h5.2v5.39h-71.73v-5.39h4.16c6.7,0,11.34-0.86,13.92-2.58c2.58-1.72,4.22-4.39,4.91-8.02
				c0.69-3.63,1.04-12.08,1.04-25.35v-77.87c0-12.65-0.35-20.8-1.04-24.47c-0.69-3.67-2.23-6.21-4.62-7.61
				c-2.39-1.41-7.55-2.11-15.48-2.11h-2.89v-5.39l19.64-0.7c15.71-0.54,27.95-0.82,36.73-0.82c16.17,0,28.63,1.29,37.37,3.86
				c8.74,2.58,15.9,7.14,21.48,13.7c5.58,6.56,8.38,14.83,8.38,24.82c0,8.66-1.91,16.32-5.72,22.95c-3.81,6.64-9.28,11.67-16.4,15.1
				c-7.12,3.44-19.66,5.15-37.6,5.15H829.65z M829.65,208.88h11.2c9.01,0,16.29-0.92,21.83-2.75c5.54-1.83,10.16-5.68,13.86-11.53
				c3.7-5.85,5.55-13.07,5.55-21.66c0-13.11-3.18-22.74-9.53-28.86c-6.35-6.13-16.65-9.19-30.9-9.19c-5.24,0-9.24,0.16-12.01,0.47
				V208.88z"/>
		</g>
		<g>
			<path class="st10" d="M176.15,474.85v-46.65h5.28c5.98,30.39,20.16,45.58,42.54,45.58c10.06,0,17.86-2.91,23.38-8.72
				c5.52-5.81,8.29-12.32,8.29-19.53c0-7.28-2.43-13.38-7.28-18.3c-4.86-4.85-13.72-10.06-26.6-15.62
				c-11.47-4.99-20.13-9.36-25.97-13.11c-5.84-3.75-10.4-8.61-13.67-14.61c-3.27-5.99-4.91-12.38-4.91-19.15
				c0-10.34,3.54-18.96,10.61-25.84c7.07-6.88,16.03-10.33,26.86-10.33c6.05,0,11.75,1,17.1,3c5.35,2,10.84,6.14,16.47,12.41
				c3.24-3.92,5.07-8.17,5.49-12.73h4.64v37.99h-4.64c-2.68-11.06-7.41-19.76-14.2-26.11c-6.79-6.35-14.66-9.52-23.59-9.52
				c-8.52,0-14.76,2.34-18.74,7.01c-3.98,4.67-5.96,9.79-5.96,15.36c0,6.71,2.5,12.38,7.49,17.01c4.92,4.71,13.83,9.99,26.71,15.84
				c12.31,5.56,21.27,10.04,26.86,13.43c5.59,3.39,10.08,8.08,13.46,14.07c3.38,5.99,5.07,12.91,5.07,20.76
				c0,12.41-4.08,22.51-12.24,30.28c-8.16,7.78-19.07,11.66-32.72,11.66c-15.69,0-28.78-6.1-39.27-18.3
				c-2.32,3.35-4.05,8.06-5.17,14.13H176.15z"/>
		</g>
		<g>
			<path class="st10" d="M684.45,257.86h-10.2V130.87h10.2V257.86z M694.65,273.71h-10.2v-15.85h10.2V273.71z M725.32,289.56h-30.67
				v-15.85h30.67V289.56z M735.52,273.71h-10.2v-15.85h10.2V273.71z M756,289.56h-10.2v-31.7h-10.27v-15.85h10.27V130.87H756V289.56
				z"/>
		</g>
		<g>
			<path class="st10" d="M506.25,129.04c7.78,0,14.85,1.15,21.2,3.44c6.35,2.29,11.78,5.77,16.31,10.43
				c4.52,4.67,8.01,10.51,10.47,17.54c2.46,7.03,3.69,15.29,3.69,24.77c0,9.48-1.23,17.66-3.69,24.54
				c-2.46,6.88-5.95,12.54-10.47,16.97c-4.52,4.44-9.96,7.68-16.31,9.75c-6.35,2.06-13.42,3.1-21.2,3.1h-12.01v43.8
				c0,1.68-0.46,3.14-1.37,4.36c-0.92,1.22-2,1.83-3.26,1.83h-35.36c-1.26,0-2.35-0.61-3.26-1.83c-0.92-1.22-1.37-2.67-1.37-4.36
				V135.23c0-1.68,0.46-3.13,1.37-4.36c0.91-1.22,2-1.84,3.26-1.84H506.25z M493.38,197.14h12.02c1.83,0,3.6-0.95,5.32-2.87
				c1.72-1.91,2.57-5.08,2.57-9.52c0-2.9-0.54-5.81-1.63-8.71c-1.09-2.9-3.18-4.36-6.27-4.36h-12.02V197.14z"/>
		</g>
		<rect x="581.79" y="195.43" class="st10" width="59.45" height="29.56"/>
	</g>
</g>
<g id="Calque_4">
	<g>
		<path class="st9" d="M640.41,607.96l34.97-55.99l15.22,55.99l29.52-52.37h9.36l-42.59,73.51l-15.22-56.27l-34.97,56.27
			l-16.87-73.51h9.36L640.41,607.96z"/>
		<path class="st9" d="M751.12,629.09h-10.5v-74.65h10.5V629.09z"/>
		<path class="st9" d="M820.67,629.09H789.1v-5.32h-5.25v-5.32h-5.25v-5.32h-5.25v-42.68h5.25v-5.32h5.25v-5.32h5.25v-5.36h31.57
			v5.36h5.25v5.32h5.29v5.32h5.25v10.68h-10.54v-5.32h-5.25v-5.36h-5.25v-5.32h-21.04v5.32h-5.29v5.36h-5.25v31.97h5.25v5.36h5.29
			v5.32h21.04v-5.32h5.25v-5.36h5.25v-5.32h10.54v10.68h-5.25v5.32h-5.29v5.32h-5.25V629.09z"/>
		<path class="st9" d="M851.44,620.39v-1.47c2.66-1.26,4.37-3.15,5.11-5.66c0.42-1.61,0.62-4.16,0.62-7.65v-26.42
			c0-3.77-0.29-6.12-0.87-7.02c-0.58-0.91-2-1.36-4.24-1.36h-0.62l-0.87-1.57c0.33-0.14,0.64-0.26,0.94-0.37
			c0.29-0.1,0.64-0.23,1.06-0.37c5.57-2.03,11.06-4.21,16.46-6.55c5.4-2.34,10.77-4.84,16.09-7.5l21.45,23.38l-32.05,22.54V614
			c2.66,0.98,5.26,1.99,7.8,3.04c2.54,1.05,5.05,2.17,7.55,3.35l12.72-7.13l1.75,2.1l-25.82,14.47
			C868.78,624.66,859.76,621.51,851.44,620.39z M874.52,563.57v31.77l17.96-12.58L874.52,563.57z"/>
		<polygon class="st9" points="609.62,552.85 554.22,552.85 554.22,575.75 567.81,575.75 567.81,629.09 597.53,629.09 
			597.53,575.75 609.62,575.75 		"/>
	</g>
	<line class="st11" x1="173.42" y1="504.34" x2="906.92" y2="504.34"/>
	<line class="st11" x1="173.42" y1="660.91" x2="906.92" y2="660.91"/>
	<g>
		<rect x="173.15" y="819.72" class="st5" width="733.43" height="190.72"/>
		<text transform="matrix(0.9865 0 0 1 173.1515 881.7248)"><tspan x="0" y="0" class="st6 st12 st13">9am</tspan><tspan x="238.15" y="0" class="st6 st12 st14"> </tspan><tspan x="530.14" y="0" class="st6 st12 st13">9pm</tspan></text>
	</g>
</g>
</svg>
